<svg xmlns="http://www.w3.org/2000/svg" xmlns:xlink="http://www.w3.org/1999/xlink" width="500" zoomAndPan="magnify" viewBox="0 0 375 374.999991" height="500" preserveAspectRatio="xMidYMid meet" version="1.0"><defs><g/><clipPath id="c2437123e9"><path d="M 145 37 L 305.574219 37 L 305.574219 284.1875 L 145 284.1875 Z M 145 37 " clip-rule="nonzero"/></clipPath><clipPath id="b9a75fab9e"><path d="M 69.425781 11.183594 L 229 11.183594 L 229 256 L 69.425781 256 Z M 69.425781 11.183594 " clip-rule="nonzero"/></clipPath></defs><g fill="#272626" fill-opacity="1"><g transform="translate(66.586808, 346.059936)"><g><path d="M 19.828125 -45.765625 C 22.265625 -45.765625 24.644531 -45.410156 26.96875 -44.703125 C 29.289062 -43.992188 31.015625 -43.296875 32.140625 -42.609375 L 33.78125 -41.515625 L 29.640625 -33.34375 C 29.316406 -33.5625 28.863281 -33.84375 28.28125 -34.1875 C 27.695312 -34.53125 26.601562 -34.992188 25 -35.578125 C 23.40625 -36.160156 21.921875 -36.453125 20.546875 -36.453125 C 18.835938 -36.453125 17.519531 -36.085938 16.59375 -35.359375 C 15.664062 -34.628906 15.203125 -33.648438 15.203125 -32.421875 C 15.203125 -31.796875 15.421875 -31.21875 15.859375 -30.6875 C 16.296875 -30.164062 17.039062 -29.601562 18.09375 -29 C 19.144531 -28.40625 20.066406 -27.925781 20.859375 -27.5625 C 21.660156 -27.207031 22.898438 -26.664062 24.578125 -25.9375 C 27.484375 -24.695312 29.960938 -23.015625 32.015625 -20.890625 C 34.066406 -18.765625 35.09375 -16.359375 35.09375 -13.671875 C 35.09375 -11.097656 34.628906 -8.847656 33.703125 -6.921875 C 32.773438 -4.992188 31.5 -3.484375 29.875 -2.390625 C 28.257812 -1.304688 26.472656 -0.503906 24.515625 0.015625 C 22.554688 0.546875 20.429688 0.8125 18.140625 0.8125 C 16.179688 0.8125 14.253906 0.613281 12.359375 0.21875 C 10.472656 -0.175781 8.894531 -0.671875 7.625 -1.265625 C 6.351562 -1.867188 5.207031 -2.460938 4.1875 -3.046875 C 3.175781 -3.628906 2.4375 -4.117188 1.96875 -4.515625 L 1.25 -5.125 L 6.375 -13.734375 C 6.8125 -13.367188 7.410156 -12.90625 8.171875 -12.34375 C 8.929688 -11.78125 10.28125 -11.023438 12.21875 -10.078125 C 14.164062 -9.128906 15.882812 -8.65625 17.375 -8.65625 C 21.695312 -8.65625 23.859375 -10.128906 23.859375 -13.078125 C 23.859375 -13.691406 23.703125 -14.257812 23.390625 -14.78125 C 23.085938 -15.3125 22.546875 -15.835938 21.765625 -16.359375 C 20.984375 -16.890625 20.289062 -17.3125 19.6875 -17.625 C 19.09375 -17.9375 18.113281 -18.410156 16.75 -19.046875 C 15.382812 -19.679688 14.378906 -20.160156 13.734375 -20.484375 C 11.003906 -21.828125 8.894531 -23.503906 7.40625 -25.515625 C 5.914062 -27.535156 5.171875 -29.707031 5.171875 -32.03125 C 5.171875 -36.0625 6.660156 -39.359375 9.640625 -41.921875 C 12.617188 -44.484375 16.015625 -45.765625 19.828125 -45.765625 Z M 19.828125 -45.765625 "/></g></g></g><g fill="#272626" fill-opacity="1"><g transform="translate(106.189825, 346.059936)"><g><path d="M 13.515625 -44.953125 L 13.515625 0 L 3.265625 0 L 3.265625 -44.953125 Z M 13.515625 -44.953125 "/></g></g></g><g fill="#272626" fill-opacity="1"><g transform="translate(125.964719, 346.059936)"><g><path d="M 43.921875 -25.171875 L 43.921875 -15.421875 C 42.753906 -10.078125 40.207031 -6.035156 36.28125 -3.296875 C 32.363281 -0.554688 27.988281 0.8125 23.15625 0.8125 C 17.09375 0.8125 11.925781 -1.453125 7.65625 -5.984375 C 3.382812 -10.523438 1.25 -16.015625 1.25 -22.453125 C 1.25 -28.984375 3.335938 -34.5 7.515625 -39 C 11.691406 -43.507812 16.90625 -45.765625 23.15625 -45.765625 C 30.457031 -45.765625 36.234375 -43.203125 40.484375 -38.078125 L 33.78125 -30.734375 C 31.382812 -34.578125 28.039062 -36.5 23.75 -36.5 C 20.59375 -36.5 17.894531 -35.128906 15.65625 -32.390625 C 13.425781 -29.648438 12.3125 -26.335938 12.3125 -22.453125 C 12.3125 -18.640625 13.425781 -15.378906 15.65625 -12.671875 C 17.894531 -9.960938 20.59375 -8.609375 23.75 -8.609375 C 26.363281 -8.609375 28.644531 -9.394531 30.59375 -10.96875 C 32.539062 -12.550781 33.515625 -14.648438 33.515625 -17.265625 L 23.15625 -17.265625 L 23.15625 -25.171875 Z M 43.921875 -25.171875 "/></g></g></g><g fill="#272626" fill-opacity="1"><g transform="translate(174.119953, 346.059936)"><g><path d="M 28.984375 -44.953125 L 28.984375 -35.953125 L 13.515625 -35.953125 L 13.515625 -27.03125 L 28.328125 -27.03125 L 28.328125 -18.03125 L 13.515625 -18.03125 L 13.515625 -8.984375 L 28.984375 -8.984375 L 28.984375 0 L 3.265625 0 L 3.265625 -44.953125 Z M 28.984375 -44.953125 "/></g></g></g><g fill="#272626" fill-opacity="1"><g transform="translate(208.711459, 346.059936)"><g><path d="M 43.921875 -25.171875 L 43.921875 -15.421875 C 42.753906 -10.078125 40.207031 -6.035156 36.28125 -3.296875 C 32.363281 -0.554688 27.988281 0.8125 23.15625 0.8125 C 17.09375 0.8125 11.925781 -1.453125 7.65625 -5.984375 C 3.382812 -10.523438 1.25 -16.015625 1.25 -22.453125 C 1.25 -28.984375 3.335938 -34.5 7.515625 -39 C 11.691406 -43.507812 16.90625 -45.765625 23.15625 -45.765625 C 30.457031 -45.765625 36.234375 -43.203125 40.484375 -38.078125 L 33.78125 -30.734375 C 31.382812 -34.578125 28.039062 -36.5 23.75 -36.5 C 20.59375 -36.5 17.894531 -35.128906 15.65625 -32.390625 C 13.425781 -29.648438 12.3125 -26.335938 12.3125 -22.453125 C 12.3125 -18.640625 13.425781 -15.378906 15.65625 -12.671875 C 17.894531 -9.960938 20.59375 -8.609375 23.75 -8.609375 C 26.363281 -8.609375 28.644531 -9.394531 30.59375 -10.96875 C 32.539062 -12.550781 33.515625 -14.648438 33.515625 -17.265625 L 23.15625 -17.265625 L 23.15625 -25.171875 Z M 43.921875 -25.171875 "/></g></g></g><g fill="#272626" fill-opacity="1"><g transform="translate(256.866699, 346.059936)"><g><path d="M 40.421875 0 L 38.296875 -26.640625 L 38.03125 -26.640625 L 28.828125 -0.265625 L 22.71875 -0.265625 L 13.515625 -26.640625 L 13.234375 -26.640625 L 11.109375 0 L 0.875 0 L 4.90625 -44.953125 L 15.796875 -44.953125 L 25.765625 -19.015625 L 35.734375 -44.953125 L 46.640625 -44.953125 L 50.671875 0 Z M 40.421875 0 "/></g></g></g><path fill="#3871c1" d="M 185.855469 106.503906 C 174.855469 107.28125 165.933594 116.132812 165.070312 127.128906 C 164.328125 136.609375 169.46875 144.972656 177.230469 148.960938 L 177.230469 178.660156 C 177.230469 184.332031 181.828125 188.929688 187.5 188.929688 C 193.171875 188.929688 197.769531 184.332031 197.769531 178.660156 L 197.769531 148.960938 C 205.03125 145.226562 210 137.667969 210 128.945312 C 210 115.972656 199.027344 105.566406 185.855469 106.503906 " fill-opacity="1" fill-rule="nonzero"/><g clip-path="url(#c2437123e9)"><path fill="#272626" d="M 232.925781 37.566406 L 145.007812 87.980469 L 218.910156 67.988281 L 272.222656 98.769531 C 272.222656 143.253906 254.511719 184.988281 224.746094 216.40625 C 201.453125 240.984375 160.351562 265.734375 160.351562 265.734375 C 168.898438 272.398438 177.957031 278.519531 187.5 284.03125 C 260.566406 241.84375 305.578125 163.882812 305.578125 79.511719 L 232.925781 37.566406 " fill-opacity="1" fill-rule="nonzero"/></g><g clip-path="url(#b9a75fab9e)"><path fill="#3871c1" d="M 160.25 225.945312 C 124.113281 194.132812 102.773438 147.976562 102.773438 98.769531 L 102.878906 98.710938 L 220.59375 30.449219 L 187.5 11.34375 L 69.421875 79.511719 C 69.421875 147.238281 98.429688 210.828125 147.664062 255.105469 C 147.664062 255.105469 196.410156 229.660156 228.839844 195.722656 L 160.25 225.945312 " fill-opacity="1" fill-rule="nonzero"/></g></svg>