<svg xmlns="http://www.w3.org/2000/svg" xmlns:xlink="http://www.w3.org/1999/xlink" width="500" zoomAndPan="magnify" viewBox="0 0 375 374.999991" height="500" preserveAspectRatio="xMidYMid meet" version="1.0"><defs><clipPath id="6757d8eb31"><path d="M 145 77 L 305.675781 77 L 305.675781 324 L 145 324 Z M 145 77 " clip-rule="nonzero"/></clipPath><clipPath id="2a86284789"><path d="M 69.425781 51 L 229 51 L 229 295 L 69.425781 295 Z M 69.425781 51 " clip-rule="nonzero"/></clipPath></defs><path fill="#3871c1" d="M 185.90625 146.316406 C 174.902344 147.09375 165.976562 155.945312 165.113281 166.941406 C 164.367188 176.421875 169.515625 184.78125 177.277344 188.773438 L 177.277344 218.472656 C 177.277344 224.140625 181.875 228.738281 187.550781 228.738281 C 193.226562 228.738281 197.824219 224.140625 197.824219 218.472656 L 197.824219 188.773438 C 205.089844 185.039062 210.058594 177.480469 210.058594 168.753906 C 210.058594 155.785156 199.082031 145.378906 185.90625 146.316406 " fill-opacity="1" fill-rule="nonzero"/><g clip-path="url(#6757d8eb31)"><path fill="#272626" d="M 232.996094 77.378906 L 145.039062 127.792969 L 218.976562 107.800781 L 272.308594 138.582031 C 272.308594 183.0625 254.59375 224.796875 224.8125 256.214844 C 201.507812 280.796875 160.390625 305.542969 160.390625 305.542969 C 168.941406 312.210938 178.003906 318.328125 187.550781 323.839844 C 260.648438 281.65625 305.679688 203.695312 305.679688 119.324219 L 232.996094 77.378906 " fill-opacity="1" fill-rule="nonzero"/></g><g clip-path="url(#2a86284789)"><path fill="#3871c1" d="M 160.289062 265.757812 C 124.136719 233.945312 102.789062 187.789062 102.789062 138.582031 L 102.894531 138.523438 L 220.65625 70.261719 L 187.550781 51.15625 L 69.421875 119.324219 C 69.421875 187.050781 98.441406 250.640625 147.699219 294.914062 C 147.699219 294.914062 196.464844 269.472656 228.90625 235.535156 L 160.289062 265.757812 " fill-opacity="1" fill-rule="nonzero"/></g></svg>